<?xml version="1.0" encoding="UTF-8"?>
<!DOCTYPE svg PUBLIC "-//W3C//DTD SVG 1.1//EN" "http://www.w3.org/Graphics/SVG/1.1/DTD/svg11.dtd">
<svg xmlns="http://www.w3.org/2000/svg" version="1.1" width="278px" height="243px" style="shape-rendering:geometricPrecision; text-rendering:geometricPrecision; image-rendering:optimizeQuality; fill-rule:evenodd; clip-rule:evenodd" xmlns:xlink="http://www.w3.org/1999/xlink">
<g><path style="opacity:1" fill="#689d45" d="M -0.5,-0.5 C 92.1667,-0.5 184.833,-0.5 277.5,-0.5C 277.5,80.5 277.5,161.5 277.5,242.5C 184.833,242.5 92.1667,242.5 -0.5,242.5C -0.5,161.5 -0.5,80.5 -0.5,-0.5 Z"/></g>
<g><path style="opacity:1" fill="#e5c218" d="M 134.5,10.5 C 191.98,8.20841 230.48,33.8751 250,87.5C 261.001,138.871 244.834,179.037 201.5,208C 158.025,230.533 117.025,226.866 78.5,197C 41.2824,160.827 32.449,118.661 52,70.5C 69.8361,37.1576 97.3361,17.1576 134.5,10.5 Z"/></g>
<g><path style="opacity:1" fill="#689d45" d="M 136.5,17.5 C 186.592,15.5284 221.592,37.3617 241.5,83C 254.029,125.908 244.029,162.575 211.5,193C 179.143,217.253 144.143,221.92 106.5,207C 65.1323,185.118 45.9657,150.618 49,103.5C 58.6121,54.7196 87.7788,26.053 136.5,17.5 Z"/></g>
<g><path style="opacity:1" fill="#e8c317" d="M 146.5,48.5 C 170.096,70.428 193.096,93.0947 215.5,116.5C 193.167,139.5 170.5,162.167 147.5,184.5C 124.5,162.167 101.833,139.5 79.5,116.5C 101.854,93.8125 124.188,71.1458 146.5,48.5 Z"/></g>
<g><path style="opacity:1" fill="#6a9d45" d="M 146.5,57.5 C 167.095,76.4276 187.095,96.0942 206.5,116.5C 187.167,136.5 167.5,156.167 147.5,175.5C 127.5,156.167 107.833,136.5 88.5,116.5C 107.855,96.8125 127.188,77.1458 146.5,57.5 Z"/></g>
<g><path style="opacity:1" fill="#e5c219" d="M 146.5,84.5 C 158.093,94.4248 169.093,105.091 179.5,116.5C 169.167,127.5 158.5,138.167 147.5,148.5C 136.5,138.167 125.833,127.5 115.5,116.5C 125.855,105.813 136.188,95.146 146.5,84.5 Z"/></g>
<g><path style="opacity:1" fill="#6a9d45" d="M 147.5,93.5 C 155.479,100.812 163.146,108.479 170.5,116.5C 163.181,124.319 155.681,131.986 148,139.5C 140.319,131.986 132.819,124.319 125.5,116.5C 132.855,108.813 140.188,101.146 147.5,93.5 Z"/></g>
</svg>
